<svg xmlns="http://www.w3.org/2000/svg" version="1.1" xmlns:xlink="http://www.w3.org/1999/xlink" xmlns:svgjs="http://svgjs.dev/svgjs" width="1500" height="685" viewBox="0 0 1500 685"><g transform="matrix(1,0,0,1,-0.9090909090909918,-0.8137718255576374)"><svg viewBox="0 0 396 181" data-background-color="#ffffff" preserveAspectRatio="xMidYMid meet" height="685" width="1500" xmlns="http://www.w3.org/2000/svg" xmlns:xlink="http://www.w3.org/1999/xlink"><g id="tight-bounds" transform="matrix(1,0,0,1,0.2400000000000091,0.2150258400378533)"><svg viewBox="0 0 395.52 180.5699483199243" height="180.5699483199243" width="395.52"><g><svg viewBox="0 0 395.52 180.5699483199243" height="180.5699483199243" width="395.52"><g><svg viewBox="0 0 395.52 180.5699483199243" height="180.5699483199243" width="395.52"><g id="textblocktransform"><svg viewBox="0 0 395.52 180.5699483199243" height="180.5699483199243" width="395.52" id="textblock"><g><rect width="395.52" height="129.63469834358733" fill="none" stroke-width="9.018103199999999" stroke="#000000" data-fill-palette-color="none" data-stroke-palette-color="tertiary"></rect><rect width="395.52" height="50.93524997633696" y="129.63469834358733" fill="#000000" data-fill-palette-color="tertiary"></rect></g><g><svg viewBox="0 0 395.52 129.63469834358733" height="129.63469834358733" width="395.52"><g transform="matrix(1,0,0,1,23.607599999999998,23.607599999999998)"><svg width="348.3048" viewBox="2.05 -37.5 211.28 50" height="82.41949834358732" data-palette-color="#000000"><path d="M20-34.55L20-34.55Q12.25-34.55 12.25-19.6L12.25-19.6 12.25-15.65Q12.25-8.55 14.3-4.53 16.35-0.5 20.35-0.5L20.35-0.5Q25.85-0.5 30.45-11.2L30.45-11.2 31.35-11.2 31-0.05 30.45-0.05Q30.15-0.6 29.9-0.83 29.65-1.05 29.18-1.05 28.7-1.05 25.55-0.28 22.4 0.5 19.15 0.5L19.15 0.5Q11 0.5 6.53-3.9 2.05-8.3 2.05-17.13 2.05-25.95 6.73-30.75 11.4-35.55 19.3-35.55L19.3-35.55Q22.35-35.55 25.28-34.77 28.2-34 28.7-34 29.2-34 29.45-34.23 29.7-34.45 30-35L30-35 30.55-35 30.95-24.15 30.05-24.15Q27.8-29.2 25.43-31.88 23.05-34.55 20-34.55ZM65.25 0L51.35 0 51.35-0.9 53.65-0.9 48-12.5 47.05-12.25 47.05-0.9 49.35-0.9 49.35 0 35 0 35-0.9 37.75-0.9 37.75-36.6 34.8-36.6 34.8-37.5 47.05-37.5 47.05-13.25 47.85-13.55 59.1-22.9 54.4-22.9 54.4-23.8 64.25-23.8 64.25-22.9 60.75-22.9 54.8-17.85 63.45-0.9 65.25-0.9 65.25 0ZM78.75-23.4L78.75-23.4Q76.55-23.4 75.59-21 74.65-18.6 74.65-13.05L74.65-13.05 74.65-10.45Q74.65-5.5 75.75-3.35 76.84-1.2 79.8-1.2 82.75-1.2 84.5-3.2 86.25-5.2 86.75-7.75L86.75-7.75 87.65-7.65Q86.7-3.35 84.15-1.45L84.15-1.45Q81.55 0.5 77 0.5L77 0.5Q71.2 0.5 68.09-2.63 65-5.75 65-11.78 65-17.8 68.52-21.05 72.05-24.3 78.34-24.3L78.34-24.3Q82.8-24.3 85.15-22.58 87.5-20.85 87.5-18.25 87.5-15.65 86.37-14.45 85.25-13.25 83.27-13.25 81.3-13.25 80.09-14.3 78.9-15.35 78.9-17.4L78.9-17.4Q78.9-18.3 79.15-19.2L79.15-19.2 80.8-19.2Q81.15-20.2 81.15-21L81.15-21Q81.15-23.4 78.75-23.4ZM102.89-23.4L102.89-23.4Q100.69-23.4 99.74-21 98.79-18.6 98.79-13.05L98.79-13.05 98.79-10.45Q98.79-5.5 99.89-3.35 100.99-1.2 103.94-1.2 106.89-1.2 108.64-3.2 110.39-5.2 110.89-7.75L110.89-7.75 111.79-7.65Q110.84-3.35 108.29-1.45L108.29-1.45Q105.69 0.5 101.14 0.5L101.14 0.5Q95.34 0.5 92.24-2.63 89.14-5.75 89.14-11.78 89.14-17.8 92.67-21.05 96.19-24.3 102.49-24.3L102.49-24.3Q106.94-24.3 109.29-22.58 111.64-20.85 111.64-18.25 111.64-15.65 110.52-14.45 109.39-13.25 107.42-13.25 105.44-13.25 104.24-14.3 103.04-15.35 103.04-17.4L103.04-17.4Q103.04-18.3 103.29-19.2L103.29-19.2 104.94-19.2Q105.29-20.2 105.29-21L105.29-21Q105.29-23.4 102.89-23.4ZM113.59-22.9L111.54-22.9 111.54-23.8 126.04-23.8 126.04-22.9 123.34-22.9 128.79-6.3 134.59-22.9 131.24-22.9 131.24-23.8 138.29-23.8 138.29-22.9 135.79-22.9 126.44 4.05Q124.79 8.75 122.74 10.63 120.69 12.5 117.74 12.5 114.79 12.5 113.09 11.15 111.39 9.8 111.39 7.7 111.39 5.6 112.49 4.5 113.59 3.4 115.39 3.4L115.39 3.4Q119.54 3.4 119.54 6.85L119.54 6.85Q119.54 7.6 119.24 8.65L119.24 8.65 117.49 8.65Q117.09 9.8 117.39 10.55 117.69 11.3 118.74 11.3L118.74 11.3Q120.79 11.3 122.39 9.28 123.99 7.25 125.44 3.1L125.44 3.1 126.54 0 122.14 0 113.59-22.9ZM155.09-22.4L155.09-22.4Q153.24-22.4 151.84-20 150.44-17.6 150.44-14.3L150.44-14.3 150.44-0.9 153.99-0.9 153.99 0 138.39 0 138.39-0.9 141.14-0.9 141.14-22.9 138.39-22.9 138.39-23.8 150.44-23.8 150.44-19Q151.09-21.55 152.94-22.93 154.79-24.3 157.14-24.3 159.49-24.3 160.96-22.98 162.44-21.65 162.44-19.23 162.44-16.8 161.34-15.5 160.24-14.2 157.96-14.2 155.69-14.2 154.61-15.7 153.54-17.2 154.34-19.85L154.34-19.85 156.14-19.85Q157.39-22.4 155.09-22.4ZM192.14-0.9L192.14 0 180.74 0 180.19-3.65Q179.39-1.65 177.81-0.58 176.24 0.5 173.14 0.5L173.14 0.5Q165.39 0.5 165.39-7.85L165.39-7.85 165.39-22.9 162.59-22.9 162.59-23.8 174.69-23.8 174.69-6.65Q174.69-3.65 175.11-2.7 175.54-1.75 176.81-1.75 178.09-1.75 179.09-3.3 180.09-4.85 180.09-7.6L180.09-7.6 180.09-22.9 177.79-22.9 177.79-23.8 189.39-23.8 189.39-0.9 192.14-0.9ZM194.88 0.5L194.28 0.5 194.28-8.45 194.88-8.45Q196.18-4.1 198.38-2.35 200.58-0.6 203.88-0.6L203.88-0.6Q208.98-0.6 208.98-3.85L208.98-3.85Q208.98-5.25 207.73-5.95L207.73-5.95Q205.78-7.05 202.73-7.65L202.73-7.65Q199.33-8.55 197.03-10.05L197.03-10.05Q194.28-11.85 194.28-15.75 194.28-19.65 196.68-21.98 199.08-24.3 203.08-24.3L203.08-24.3Q205.53-24.3 208.13-23.15L208.13-23.15Q209.08-22.75 209.58-22.75 210.08-22.75 210.43-23.1 210.78-23.45 211.28-24.4L211.28-24.4 211.83-24.4 211.83-16.75 211.23-16.75Q208.68-23.25 203.33-23.25L203.33-23.25Q200.98-23.25 199.83-22.43 198.68-21.6 198.68-20.35L198.68-20.35Q198.68-19.6 199.03-19.18 199.38-18.75 199.58-18.55 199.78-18.35 200.23-18.13 200.68-17.9 200.98-17.78 201.28-17.65 201.91-17.45 202.53-17.25 202.83-17.2L202.83-17.2Q206.23-16.35 207.73-15.73 209.23-15.1 210.58-14.2L210.58-14.2Q213.33-12.3 213.33-8.08 213.33-3.85 210.83-1.68 208.33 0.5 203.98 0.5L203.98 0.5Q200.88 0.5 197.98-0.95L197.98-0.95Q197.38-1.35 197.03-1.35L197.03-1.35Q195.93-1.35 194.88 0.5L194.88 0.5Z" opacity="1" transform="matrix(1,0,0,1,0,0)" fill="#000000" class="wordmark-text-0" data-fill-palette-color="primary" id="text-0"></path></svg></g></svg></g></svg></g></svg></g><g></g></svg></g><defs></defs></svg><rect width="395.52" height="180.5699483199243" fill="none" stroke="none" visibility="hidden"></rect></g></svg></g></svg>